# AST/ASF file generated using VICON BodyLanguage
# -----------------------------------------------
:version 1.10
:name VICON
:units
  mass 1.0
  length 0.45
  angle deg
:documentation
   .ast/.asf automatically generated from VICON data using
   VICON BodyBuilder and BodyLanguage model FoxedUp or BRILLIANT.MOD
:root
   order TX TY TZ RX RY RZ
   axis XYZ
   position 0 0 0  
   orientation 0 0 0 
:bonedata
  begin
     id 1 
     name lhipjoint
     direction 0.653368 -0.678499 0.335782 
     length 2.51848 
     axis 0 0 0  XYZ
  end
  begin
     id 2 
     name lfemur
     direction 0.34202 -0.939693 0  
     length 6.57749  
     axis 0 0 20  XYZ
    dof rx ry rz
    limits (-160.0 20.0)
           (-70.0 70.0)
           (-60.0 70.0)
  end
  begin
     id 3 
     name ltibia
     direction 0.34202 -0.939693 0   
     length 7.94618   
     axis 0 0 20   XYZ
    dof rx
    limits (-10.0 170.0)
  end
  begin
     id 4 
     name lfoot
     direction 0.0811271 -0.222895 0.971461   
     length 2.31339   
     axis -90 7.62852e-016 20   XYZ
    dof rx rz
    limits (-45.0 90.0)
           (-70.0 20.0)
  end
  begin
     id 5 
     name ltoes
     direction 1.53568e-011 -4.21885e-011 1   
     length 1.15935   
     axis -90 7.62852e-016 20   XYZ
    dof rx
    limits (-90.0 20.0)
  end
  begin
     id 6 
     name rhipjoint
     direction -0.640058 -0.688614 0.340788   
     length 2.48149  
     axis 0 0 0  XYZ 
  end
  begin
     id 7 
     name rfemur
     direction -0.34202 -0.939693 0   
     length 6.57875   
     axis 0 0 -20   XYZ
    dof rx ry rz
    limits (-160.0 20.0)
           (-70.0 70.0)
           (-70.0 60.0)
  end
  begin
     id 8 
     name rtibia
     direction -0.34202 -0.939693 0   
     length 7.977   
     axis 0 0 -20   XYZ
    dof rx
    limits (-10.0 170.0)
 end
 begin
     id 9 
     name rfoot
     direction -0.0979793 -0.269196 0.958089   
     length 2.19857  
     axis -90 -7.62852e-016 -20   XYZ
    dof rx rz
    limits (-45.0 90.0)
           (-20.0 70.0)
  end
  begin
     id 10 
     name rtoes
     direction -1.53556e-011 -4.21868e-011 1   
     length 1.09838   
     axis -90 -7.62852e-016 -20   XYZ
    dof rx
    limits (-90.0 20.0)
  end
  begin
     id 11 
     name lowerback
     direction 0.0149039 0.998517 -0.0523597   
     length 2.10809   
     axis 0 0 0   XYZ
    dof rx ry rz
    limits (-20.0 45.0)
           (-30.0 30.0)
           (-30.0 30.0)
  end
  begin
     id 12 
     name upperback
     direction -0.00882659 0.999418 -0.0329624   
     length 2.1102   
     axis 0 0 0   XYZ
    dof rx ry rz
    limits (-20.0 45.0)
           (-30.0 30.0)
           (-30.0 30.0)
  end
  begin
     id 13 
     name thorax
     direction -0.0165585 0.999826 -0.0085833   
     length 2.11039   
     axis 0 0 0   XYZ
    dof rx ry rz
    limits (-20.0 45.0)
           (-30.0 30.0)
           (-30.0 30.0)
  end
  begin
     id 14 
     name lowerneck
     direction -0.0130877 0.999911 0.00260353   
     length 1.73253   
     axis 0 0 0   XYZ
    dof rx ry rz
    limits (-20.0 45.0)
           (-30.0 30.0)
           (-30.0 30.0)
  end
  begin
     id 15 
     name upperneck
     direction -0.0348454 0.928205 -0.370435   
     length 1.66692   
     axis 0 0 0   XYZ
    dof rx ry rz
    limits (-20.0 45.0)
           (-30.0 30.0)
           (-30.0 30.0)
  end
  begin
     id 16
     name head
     direction -0.00807754 0.992494 -0.122026  
     length 1.72765  
     axis 0 0 0   XYZ
    dof rx ry rz
    limits (-20.0 45.0)
           (-30.0 30.0)
           (-30.0 30.0)
  end
  begin
     id 17 
     name lclavicle
     direction 0.987582 0.144023 0.0627671  
     length 3.49235  
     axis 0 0 0   XYZ
    dof ry rz
    limits (-20.0 10.0)
           (0.0 20.0)
  end
  begin
     id 18 
     name lhumerus
     direction 1 -4.48958e-011 -1.45183e-018   
     length 5.41917   
     axis 180 -30 -90   XYZ
    dof rx ry rz
    limits (-60.0 90.0)
           (-90.0 90.0)
           (-90.0 90.0)
  end
  begin
     id 19
     name lradius
     direction 1 -4.48999e-011 5.75106e-027   
     length 2.44373   
     axis 180 -30 -90   XYZ
    dof rx
    limits (-10.0 170.0)
  end
  begin
     id 20
     name lwrist
     direction 1 -4.48987e-011 1.53461e-026   
     length 1.22186   
     axis -1.09697e-014 90 90   XYZ
    dof ry
    limits (-180.0 0.0)
 end
  begin
     id 21 
     name lhand
     direction 1 -4.48881e-011 3.06923e-026   
     length 0.727502   
     axis -1.95843e-014 90 90   XYZ
    dof rx rz
    limits (-90.0 90.0)
           (-45.0 45.0)
  end
  begin
     id 22 
     name lfingers
     direction 1 -4.48907e-011 6.13845e-026   
     length 0.586531   
     axis -3.91686e-014 90 90   XYZ
    dof rx
    limits (0.0 90.0)
  end
  begin
     id 23
     name lthumb
     direction 0.707107 -6.3487e-011 0.707107   
     length 0.842145   
     axis -90 45 2.85299e-015   XYZ
    dof rx rz
    limits (-45.0 45.0)
           (-45.0 45.0)
  end
  begin
     id 24 
     name rclavicle
     direction -0.980998 0.169556 0.0943023   
     length 3.29272  
     axis 0 0 0   XYZ 
    dof ry rz
    limits (-10.0 20.0)
           (-20.0 0.0)
  end
  begin
     id 25 
     name rhumerus
     direction -1 -1.83355e-005 2.45537e-005  
     length 5.58976   
     axis 180 30 90   XYZ
    dof rx ry rz
    limits (-90.0 60.0)
           (-90.0 90.0)
           (-90.0 90.0)
  end
  begin
     id 26 
     name rradius
     direction -1 -4.48967e-011 5.97228e-027   
     length 2.4806   
     axis 180 30 90   XYZ
    dof rx
    limits (-10.0 170.0)
  end
  begin
     id 27 
     name rwrist
     direction -1 -4.48963e-011 1.53461e-026   
     length 1.2403   
     axis -1.09697e-014 -90 -90   XYZ
    dof ry
    limits (-180.0 0.0)
  end
  begin
     id 28
     name rhand
     direction -1 -4.48881e-011 3.06923e-026   
     length 0.816009   
     axis -1.95843e-014 -90 -90   XYZ
    dof rx rz
    limits (-90.0 90.0)
           (-45.0 45.0)
  end
  begin
     id 29
     name rfingers
     direction -1 -4.49018e-011 6.13845e-026   
     length 0.657887   
     axis -3.91686e-014 -90 -90   XYZ
    dof rx
    limits (0.0 90.0)
  end
  begin
     id 30
     name rthumb
     direction -0.707107 -6.34872e-011 0.707107   
     length 0.944599   
     axis -90 -45 -2.85299e-015   XYZ
    dof rx rz
    limits (-45.0 45.0)
           (-45.0 45.0)
  end
:hierarchy
  begin
    root lhipjoint rhipjoint lowerback
    lhipjoint lfemur
    lfemur ltibia
    ltibia lfoot
    lfoot ltoes
    rhipjoint rfemur
    rfemur rtibia
    rtibia rfoot
    rfoot rtoes
    lowerback upperback
    upperback thorax
    thorax lowerneck lclavicle rclavicle
    lowerneck upperneck
    upperneck head
    lclavicle lhumerus
    lhumerus lradius
    lradius lwrist
    lwrist lhand lthumb
    lhand lfingers
    rclavicle rhumerus
    rhumerus rradius
    rradius rwrist
    rwrist rhand rthumb
    rhand rfingers
  end

#!OML:ASF F:\VICON\USERDATA\INSTALL\rory3\rory3.ASF
:FULLY-SPECIFIED
:DEGREES
172
root 0.377363 16.3087 -4.35943 -159.266 -8.09766 176.804
lowerback -11.842 -0.866626 -0.187371
upperback -2.4649 -1.421 1.29009
thorax 4.09423 -0.810454 1.22832
lowerneck -12.5171 2.82432 -0.493908
upperneck 41.3787 -1.00717 -0.554532
head 17.2398 -2.28713 -0.874924
rclavicle -2.28602e-015 -1.03368e-014
rhumerus -48.9276 19.65 -96.8267
rradius 24.1615
rwrist -16.256
rhand -2.31058 13.7905
rfingers 7.12502
rthumb 23.3755 -14.81
lclavicle -2.28602e-015 -1.03368e-014
lhumerus -52.3439 -8.23666 92.8644
lradius 26.2478
lwrist 8.57636
lhand 11.2284 15.9774
lfingers 7.12502
lthumb 36.2905 42.222
rfemur -48.7931 8.3511 27.8035
rtibia 43.713
rfoot -52.6524 -32.9173
rtoes 48.0478
lfemur -27.3086 18.4155 -29.4138
ltibia 56.26
lfoot 29.0694 15.9482
ltoes 22.6674
173
root 0.384245 16.3043 -4.35662 -159.281 -7.92583 176.752
lowerback -11.728 -0.856552 -0.401041
upperback -2.62028 -1.38888 1.25456
thorax 3.87207 -0.800262 1.31979
lowerneck -12.2644 2.86241 -0.504141
upperneck 41.4666 -1.06274 -0.482073
head 17.225 -2.32776 -0.856302
rclavicle 1.96797e-014 9.54166e-015
rhumerus -48.9475 19.3863 -96.6651
rradius 24.3839
rwrist -16.4425
rhand -3.56245 14.1669
rfingers 7.12502
rthumb 22.1741 -14.5814
lclavicle 1.96797e-014 9.54166e-015
lhumerus -52.5726 -7.51439 92.3421
lradius 26.8905
lwrist 7.58157
lhand 10.5932 16.2282
lfingers 7.12502
lthumb 35.6888 42.6206
rfemur -48.7678 8.34695 27.7866
rtibia 43.6664
rfoot -52.9844 -33.0136
rtoes 46.9794
lfemur -27.3697 18.3863 -29.5145
ltibia 56.379
lfoot 28.9373 16.0357
ltoes 22.8903
174
root 0.387884 16.3017 -4.35318 -159.275 -7.85109 176.7
lowerback -11.738 -0.856381 -0.525485
upperback -2.64254 -1.37286 1.21243
thorax 3.85546 -0.793774 1.34848
lowerneck -12.0953 2.87673 -0.287008
upperneck 41.3178 -0.979249 -0.708616
head 17.0958 -2.28418 -0.974694
rclavicle -3.30976e-014 -7.95139e-016
rhumerus -48.8461 19.3332 -96.6049
rradius 24.7104
rwrist -16.8209
rhand -5.32549 14.8534
rfingers 7.12502
rthumb 20.4807 -14.0864
lclavicle -3.30976e-014 -7.95139e-016
lhumerus -52.5854 -7.04257 92.0208
lradius 27.6043
lwrist 7.01841
lhand 9.62681 16.6655
lfingers 7.12502
lthumb 34.7723 43.2744
rfemur -48.7723 8.06154 27.8788
rtibia 43.632
rfoot -52.428 -33.1063
rtoes 46.8687
lfemur -27.4595 18.3494 -29.585
ltibia 56.4925
lfoot 28.8324 16.1822
ltoes 23.3379
175
root 0.387962 16.3007 -4.3582 -159.336 -7.91856 176.911
lowerback -11.991 -0.787234 -0.299192
upperback -2.45814 -1.30181 1.23596
thorax 4.18145 -0.753507 1.25074
lowerneck -12.245 2.80352 -0.230458
upperneck 41.1459 -0.955976 -0.832827
head 17.0367 -2.25341 -1.02534
rclavicle -7.45443e-015 4.05521e-014
rhumerus -48.4778 19.1671 -96.3735
rradius 25.0577
rwrist -17.1492
rhand -6.65381 14.8521
rfingers 7.12502
rthumb 19.2037 -14.2198
lclavicle -7.45443e-015 4.05521e-014
lhumerus -52.184 -6.73642 91.7646
lradius 28.1231
lwrist 6.65274
lhand 8.58984 16.8419
lfingers 7.12502
lthumb 33.7877 43.6726
rfemur -48.6806 7.7069 28.2908
rtibia 43.5951
rfoot -51.9191 -33.1856
rtoes 45.7751
lfemur -27.489 18.3896 -29.334
ltibia 56.6021
lfoot 29.2198 15.5123
ltoes 21.4943
176
root 0.392272 16.297 -4.36695 -159.433 -7.92276 177.202
lowerback -12.3594 -0.705388 -0.0571067
upperback -2.23237 -1.21794 1.25201
thorax 4.61457 -0.705604 1.13734
lowerneck -12.3943 2.72224 -0.268959
upperneck 41.0108 -1.01221 -0.779544
head 16.9991 -2.2509 -0.995103
rclavicle -6.16232e-015 -1.66979e-014
rhumerus -47.9799 18.6592 -95.9176
rradius 25.2532
rwrist -17.2053
rhand -7.67114 14.9491
rfingers 7.12502
rthumb 18.2252 -14.2171
lclavicle -6.16232e-015 -1.66979e-014
lhumerus -51.7281 -6.27488 91.2302
lradius 28.7527
lwrist 6.09188
lhand 7.83482 16.9559
lfingers 7.12502
lthumb 33.07 43.9413
rfemur -48.582 7.78798 28.6315
rtibia 43.5825
rfoot -51.3236 -33.1422
rtoes 46.256
lfemur -27.4551 18.4986 -28.9737
ltibia 56.6703
lfoot 29.3504 15.3539
ltoes 21.0632
177
root 0.398425 16.2941 -4.36904 -159.439 -7.72841 177.142
lowerback -12.6013 -0.634473 -0.209035
upperback -2.1226 -1.09402 1.14824
thorax 4.86101 -0.643944 1.13117
lowerneck -12.4847 2.64795 -0.414476
upperneck 41.0191 -1.18335 -0.521927
head 17.0285 -2.30361 -0.882772
rclavicle -7.7526e-015 -1.19271e-014
rhumerus -47.4991 17.83 -95.2897
rradius 25.3456
rwrist -16.9792
rhand -8.59501 15.7586
rfingers 7.12502
rthumb 17.3363 -13.4882
lclavicle -7.7526e-015 -1.19271e-014
lhumerus -51.5405 -5.81841 90.7268
lradius 29.6245
lwrist 5.39765
lhand 7.11574 17.1033
lfingers 7.12502
lthumb 32.3859 44.2311
rfemur -48.5972 7.93825 28.5462
rtibia 43.6566
rfoot -50.8162 -32.9676
rtoes 48.3225
lfemur -27.4284 18.5766 -29.0745
ltibia 56.6249
lfoot 29.307 15.4955
ltoes 21.4043
178
root 0.402061 16.2952 -4.37262 -159.43 -7.5037 176.9
lowerback -12.5852 -0.598105 -0.527981
upperback -2.24814 -1.00232 0.999432
thorax 4.72028 -0.605369 1.17139
lowerneck -12.3145 2.67293 -0.36146
upperneck 41.166 -1.28364 -0.446042
head 17.0685 -2.35149 -0.884649
rclavicle 8.94531e-016 -1.35174e-014
rhumerus -47.5414 17.3256 -95.0304
rradius 25.6486
rwrist -17.1468
rhand -9.33296 16.2087
rfingers 7.12502
rthumb 16.6259 -13.0992
lclavicle 8.94531e-016 -1.35174e-014
lhumerus -51.7746 -5.21901 90.2168
lradius 30.5548
lwrist 4.62556
lhand 6.36032 17.2114
lfingers 7.12502
lthumb 31.6666 44.4836
rfemur -48.6243 7.76208 28.3795
rtibia 43.7659
rfoot -50.4496 -32.9945
rtoes 48.6346
lfemur -27.3554 18.6122 -29.3664
ltibia 56.5288
lfoot 29.1968 16.0174
ltoes 22.3267
179
root 0.403984 16.2952 -4.38259 -159.357 -7.28577 176.397
lowerback -12.5777 -0.651906 -1.13296
upperback -2.53365 -1.00589 0.810514
thorax 4.42214 -0.621477 1.31621
lowerneck -11.6992 2.76855 -0.206217
upperneck 41.2672 -1.33435 -0.452161
head 16.968 -2.39756 -0.931091
rclavicle 6.95746e-016 -1.51076e-014
rhumerus -47.926 17.076 -95.0389
rradius 25.912
rwrist -17.3987
rhand -9.93759 16.2029
rfingers 7.12502
rthumb 16.0437 -13.1529
lclavicle 6.95746e-016 -1.51076e-014
lhumerus -52.2331 -4.54496 89.7513
lradius 31.4212
lwrist 4.00686
lhand 5.63299 17.4041
lfingers 7.12502
lthumb 30.9735 44.8106
rfemur -48.7206 7.72262 27.8113
rtibia 43.8871
rfoot -50.349 -32.9903
rtoes 48.3775
lfemur -27.2297 18.5628 -29.9366
ltibia 56.398
lfoot 29.1514 16.2671
ltoes 22.932
180
root 0.408376 16.2909 -4.39035 -159.477 -7.20976 176.447
lowerback -12.5239 -0.68499 -1.1867
upperback -2.70708 -1.05799 0.796255
thorax 4.21291 -0.652229 1.32482
lowerneck -11.1276 2.82765 -0.349416
upperneck 41.2846 -1.45927 -0.134742
head 16.8352 -2.46957 -0.786472
rclavicle 4.96962e-015 1.35174e-014
rhumerus -48.1971 16.9606 -95.085
rradius 26.1008
rwrist -17.7436
rhand -10.6039 16.3009
rfingers 7.12502
rthumb 15.402 -13.1053
lclavicle 4.96962e-015 1.35174e-014
lhumerus -52.604 -3.815 89.2754
lradius 32.3737
lwrist 3.50284
lhand 4.76118 17.8341
lfingers 7.12502
lthumb 30.1422 45.3956
rfemur -48.6029 7.80259 27.8799
rtibia 43.924
rfoot -50.7485 -33.2677
rtoes 48.0528
lfemur -27.0142 18.6303 -29.8309
ltibia 56.3667
lfoot 28.8381 17.0567
ltoes 24.9893
181
root 0.417073 16.2878 -4.39328 -159.599 -7.22032 176.779
lowerback -12.5361 -0.670525 -1.00796
upperback -2.74246 -1.07084 0.879538
thorax 4.18177 -0.658741 1.30888
lowerneck -10.9384 2.82048 -0.535118
upperneck 41.3273 -1.59323 0.127268
head 16.8145 -2.53828 -0.661689
rclavicle 1.50082e-014 0
rhumerus -48.1132 16.6227 -94.8258
rradius 26.3508
rwrist -18.3304
rhand -10.8092 16.3205
rfingers 7.12502
rthumb 15.2043 -13.1008
lclavicle 1.50082e-014 0
lhumerus -52.6635 -3.17956 88.8292
lradius 33.2519
lwrist 3.01706
lhand 3.73442 18.0984
lfingers 7.12502
lthumb 29.1621 45.8342
rfemur -48.4543 7.99906 28.2487
rtibia 43.9075
rfoot -51.3829 -33.4714
rtoes 47.7046
lfemur -26.9691 18.7663 -29.4166
ltibia 56.4156
lfoot 28.801 17.399
ltoes 25.8727
182
root 0.419269 16.2886 -4.39759 -159.562 -7.33176 176.918
lowerback -12.7893 -0.696094 -0.921515
upperback -2.66547 -1.11487 0.920598
thorax 4.40225 -0.680347 1.29206
lowerneck -11.0556 2.75751 -0.580459
upperneck 41.2975 -1.63724 0.0915804
head 16.8275 -2.55957 -0.67559
rclavicle 1.32192e-014 -1.90833e-014
rhumerus -47.6915 16.3279 -94.4613
rradius 26.5011
rwrist -18.9513
rhand -10.918 16.2278
rfingers 7.12502
rthumb 15.0995 -13.2014
lclavicle 1.32192e-014 -1.90833e-014
lhumerus -52.2778 -2.70828 88.5234
lradius 33.8961
lwrist 2.8993
lhand 2.83072 18.1342
lfingers 7.12502
lthumb 28.2988 46.0163
rfemur -48.4618 7.77299 28.5227
rtibia 43.8808
rfoot -50.6652 -33.2141
rtoes 47.8676
lfemur -27.0653 18.7057 -29.2451
ltibia 56.4693
lfoot 29.0973 17.0888
ltoes 24.9631
183
root 0.415203 16.2868 -4.40156 -159.605 -7.36885 177.018
lowerback -12.9989 -0.657852 -0.777351
upperback -2.55043 -1.07642 0.917114
thorax 4.63458 -0.658341 1.20997
lowerneck -11.143 2.69738 -0.627064
upperneck 41.2181 -1.66639 0.0889755
head 16.8055 -2.56471 -0.668422
rclavicle 8.54774e-015 0
rhumerus -47.2676 16.2106 -94.2278
rradius 26.563
rwrist -19.5667
rhand -11.6303 16.504
rfingers 7.12502
rthumb 14.4132 -12.9755
lclavicle 8.54774e-015 0
lhumerus -51.8575 -2.43961 88.3668
lradius 34.5892
lwrist 2.79888
lhand 2.01607 18.2901
lfingers 7.12502
lthumb 27.52 46.2989
rfemur -48.3937 7.38645 28.7971
rtibia 43.9117
rfoot -49.7001 -32.6565
rtoes 47.5501
lfemur -26.99 18.5526 -29.1191
ltibia 56.4707
lfoot 28.8695 17.3977
ltoes 25.5787
184
root 0.414194 16.2839 -4.40356 -159.655 -7.31829 176.991
lowerback -13.1196 -0.642551 -0.786137
upperback -2.48833 -1.04725 0.851539
thorax 4.76424 -0.642811 1.14932
lowerneck -11.1717 2.68547 -0.693648
upperneck 41.1702 -1.66722 0.153603
head 16.7869 -2.56045 -0.625024
rclavicle 6.36111e-015 8.74653e-015
rhumerus -46.9545 15.9407 -93.9839
rradius 26.7706
rwrist -20.0461
rhand -11.8304 16.1433
rfingers 7.12502
rthumb 14.2205 -13.3499
lclavicle 6.36111e-015 8.74653e-015
lhumerus -51.635 -2.09923 88.0951
lradius 35.3202
lwrist 2.29549
lhand 1.13041 18.0186
lfingers 7.12502
lthumb 26.6727 46.1592
rfemur -48.3375 7.18739 28.8581
rtibia 43.98
rfoot -49.7142 -32.4868
rtoes 46.7776
lfemur -26.8585 18.476 -29.1479
ltibia 56.4352
lfoot 28.636 17.5425
ltoes 25.8008
185
root 0.418444 16.2842 -4.40774 -159.632 -7.22046 176.682
lowerback -13.228 -0.663962 -1.15505
upperback -2.47109 -1.0158 0.721535
thorax 4.84427 -0.631939 1.22547
lowerneck -11.4389 2.68168 -0.851223
upperneck 41.4155 -1.73778 0.28779
head 16.9952 -2.60681 -0.562346
rclavicle 1.39149e-015 1.59028e-014
rhumerus -46.6113 15.3015 -93.4433
rradius 27.0169
rwrist -20.3887
rhand -11.0047 15.0908
rfingers 7.12502
rthumb 15.016 -14.3448
lclavicle 1.39149e-015 1.59028e-014
lhumerus -51.4205 -1.69012 87.7453
lradius 36.0873
lwrist 1.58625
lhand 0.530264 17.78
lfingers 7.12502
lthumb 26.0982 46.0068
rfemur -48.3831 7.04116 28.598
rtibia 44.102
rfoot -49.6727 -32.3939
rtoes 47.2768
lfemur -26.7584 18.5301 -29.4686
ltibia 56.3488
lfoot 28.9101 17.0064
ltoes 24.7278
